<?xml version="1.0" standalone="no"?>
<!DOCTYPE svg PUBLIC "-//W3C//DTD SVG 20010904//EN"
 "http://www.w3.org/TR/2001/REC-SVG-20010904/DTD/svg10.dtd">
<svg version="1.0" xmlns="http://www.w3.org/2000/svg"
 width="300.000000pt" height="300.000000pt" viewBox="0 0 300.000000 300.000000"
 preserveAspectRatio="xMidYMid meet">
<metadata>
Created by potrace 1.11, written by Peter Selinger 2001-2013
</metadata>
<g transform="translate(0.000000,300.000000) scale(0.100000,-0.100000)"
fill="#000000" stroke="none">
<path d="M1275 2985 c-38 -7 -81 -15 -95 -19 -14 -3 -38 -8 -55 -11 -120 -24
-325 -117 -465 -211 -110 -72 -275 -228 -357 -334 -141 -182 -240 -413 -287
-665 -15 -81 -17 -428 -2 -485 3 -14 9 -38 12 -55 48 -268 199 -551 404 -755
118 -118 123 -122 233 -197 181 -123 389 -204 617 -238 101 -15 333 -17 410
-4 30 5 66 11 80 13 96 14 254 65 370 119 453 212 786 669 847 1162 14 114 6
435 -11 463 -2 4 -7 23 -10 42 -14 90 -67 242 -122 353 -210 420 -585 711
-1047 808 -125 27 -411 34 -522 14z"/>
</g>
</svg>
